<svg t="1700644169338" class="icon" viewBox="0 0 1024 1024" version="1.1" xmlns="http://www.w3.org/2000/svg" p-id="4251" width="128" height="128"><path d="M833.8 928.2H192.6c-69.4 0-125.8-56.4-125.8-125.8v-301c0-24.7 20-44.6 44.6-44.6h150.9c33.6 0 65.2 13.1 89 36.8 23.8 23.8 36.9 55.4 36.8 89v7.1c0 20.1 16.4 36.5 36.5 36.5h173.1c20.1 0 36.5-16.4 36.5-36.5v-7.1c0-69.4 56.4-125.8 125.8-125.8h155c24.7 0 44.6 20 44.6 44.6v301c0 69.4-56.4 125.8-125.8 125.8zM156 546v256.4c0 20.1 16.4 36.5 36.5 36.5h641.3c20.1 0 36.5-16.4 36.5-36.5V546H760.2c-20.1 0-36.5 16.4-36.5 36.5v7.1c0 69.4-56.4 125.8-125.8 125.8H424.7c-69.4 0-125.8-56.4-125.8-125.8v-7.1c0-9.8-3.8-18.9-10.7-25.8-6.9-6.9-16.1-10.7-25.8-10.7H156z" fill="#333333" p-id="4252"></path><path d="M111.4 546.1c-4.8 0-9.7-0.8-14.5-2.4-23.3-8-35.7-33.4-27.7-56.7l102.6-298.3c17.5-50.8 65.3-84.9 119-84.9h444.9c53.7 0 101.5 34.1 119 84.9L957.3 487c8 23.3-4.4 48.7-27.7 56.7-23.3 8.1-48.7-4.4-56.7-27.7L770.2 217.6c-5.1-14.8-19-24.7-34.6-24.7H290.8c-15.6 0-29.5 9.9-34.5 24.7L153.6 515.9c-6.4 18.5-23.7 30.2-42.2 30.2z" fill="#333333" p-id="4253"></path></svg>