<?xml version="1.0" standalone="no"?><!DOCTYPE svg PUBLIC "-//W3C//DTD SVG 1.1//EN" "http://www.w3.org/Graphics/SVG/1.1/DTD/svg11.dtd"><svg t="1699368160304" class="icon" viewBox="0 0 1024 1024" version="1.1" xmlns="http://www.w3.org/2000/svg" p-id="10688" xmlns:xlink="http://www.w3.org/1999/xlink" width="128" height="128"><path d="M737.098752 331.708416c10.68032 10.69056 28.022784 10.69056 38.723584 0l151.646208-119.387136C966.755328 332.020736 901.569536 460.911616 781.85984 500.197376c-42.471424 13.948928-88.105984 15.104-131.243008 3.320832l-147.0976 147.0976c33.216512 121.541632-38.4 246.956032-159.922176 280.162304-43.147264 11.804672-88.803328 10.63936-131.295232-3.309568l119.387136-151.646208c10.69056-10.7008 10.69056-28.044288 0-38.723584l-44.771328-44.781568c-10.69056-10.7008-28.043264-10.722304-38.744064-0.02048 0 0-0.01024 0-0.01024 0.02048l-151.646208 119.3984C57.25184 692.00384 122.456064 563.134464 242.15552 523.84768c42.502144-13.937664 88.169472-15.08352 131.316736-3.278848l147.0976-147.096576C487.31136 251.961344 558.867456 126.49472 680.387584 93.236224c43.137024-11.814912 88.813568-10.669056 131.326976 3.278848L692.337664 248.16128c-10.7008 10.68032-10.7008 28.01152-0.021504 38.713344 0 0 0.021504 0.01024 0.021504 0.021504L737.098752 331.708416z" p-id="10689"></path></svg>