<?xml version="1.0" ?><svg id="Layer_1" style="enable-background:new 0 0 128 128;" version="1.1" viewBox="0 0 128 128" xml:space="preserve" xmlns="http://www.w3.org/2000/svg" xmlns:xlink="http://www.w3.org/1999/xlink"><style type="text/css">
	.st0{fill:#FF4F40;}
	.st1{fill:#F0E402;}
	.st2{fill:#444B54;}
	.st3{fill:#EA551B;}
	.st4{fill:#FF392D;}
	.st5{fill:#FFFFFF;}
	.st6{fill:#57906F;}
	.st7{fill:#FF9217;}
	.st8{fill:#FFFAF0;}
	.st9{fill:#F3E9CD;}
	.st10{fill:#F75342;}
	.st11{fill:none;stroke:#444B54;stroke-width:6;stroke-linecap:round;stroke-linejoin:round;stroke-miterlimit:10;}
	.st12{fill:#FFFAEE;}
	.st13{fill:#FFCE94;}
	.st14{fill:#BC9384;}
	.st15{fill:#F5999A;}
	.st16{fill:#C9C9C9;}
	.st17{fill:#95CDEE;}
	.st18{fill:#006E9F;}
	.st19{fill:#C92C28;}
	.st20{fill:#75FA61;}
</style><g><g><path class="st19" d="M49.9,38.5c0,0,43.7,32.4-4.2,59.3c-15.1,8.5-52.4,5.6-35.4-11.7c14.3-14.5,0.1-31.3,2.7-39.6    C24.2,10.4,49.9,38.5,49.9,38.5z"/></g><g><path class="st7" d="M45.7,97.8c0,0-3.2-9.1-8.4-10.2s-8.2,11.1-8.2,11.1S28,87.4,23.5,86.1C19.1,84.8,16,99.9,16,99.9    c-1.6-11.6-4-13.6-5.6-13.8c-2.6-0.4-4.2,1.7-5.2,4.2c-1.6,3.8-1.5,8.1-0.1,11.9c7.9,21.8,44.2,30.3,70.1,9.4    c32-25.7,33.5-76.7-1.3-99.7C50.7-3.5,22.8-1.1,8.4,19.2C-2.4,34.5,5,68.4,10.3,69.6c3.8,0.9,7.5-17.7,9.2-30.5    c0,0-2.3,32.4,5.1,32.5c7.4,0,8-31.4,8-31.4s1.8,29.4,8.8,29.4c7,0,8.5-31,8.5-31S84.2,68,45.7,97.8z"/></g><g><path class="st3" d="M41.7,120.6c-1.7,0-3-1.3-3-3s1.3-3,3-3c10,0,19.9-3.5,27.9-10c4.8-3.8,8.9-8.4,12.2-13.6    c0.9-1.4,2.7-1.8,4.1-0.9c1.4,0.9,1.8,2.7,0.9,4.1c-1.3,2-0.2,5.3-1.7,7.2c-2.7,3.4-30.2,22-38.1,23.6    C43.8,125.6,44.9,120.6,41.7,120.6z"/></g><g><path class="st5" d="M65,30.8c-1.6-5.5,5-9.9,9.3-6.1c0,0,0.1,0.1,0.1,0.1c8,7.3,13,16.8,14.7,27.9c0.5,3.2-1,6.4-3.8,8.2L85.1,61    c-4.8,3.1-11.1,0.6-12.6-4.9L65,30.8z"/></g><g><path class="st5" d="M22.8,20.2c-0.9,0-1.8-0.4-2.4-1.2c-1-1.3-0.7-3.2,0.6-4.2c6-4.5,13.5-6.9,21.6-6.9c1.7,0,3,1.3,3,3    s-1.3,3-3,3c-6.8,0-13.1,2-18.1,5.7C24.1,20,23.4,20.2,22.8,20.2z"/></g><g><path class="st5" d="M13.1,33.5c-0.3,0-0.5,0-0.8-0.1c-1.6-0.4-2.6-2.1-2.1-3.7c0.2-0.7,0.4-1.4,0.6-2c0.5-1.6,2.3-2.4,3.8-1.8    c1.6,0.5,2.4,2.3,1.8,3.8c-0.2,0.5-0.3,1-0.5,1.6C15.6,32.6,14.4,33.5,13.1,33.5z"/></g><g><circle class="st2" cx="78.5" cy="49.5" r="3"/></g><g><path class="st7" d="M105.4,62c0-19.6,16.6-35.6,20-34c2.8,1.3-4.7,13.8-4.2,36.4c0.4,19.9,6.6,30.4,4.2,31.6    C122.1,97.6,105.4,81.6,105.4,62z"/></g><g><path class="st2" d="M41.8,126.6c-3,0-5.9-0.2-8.9-0.7c-1.6-0.3-2.7-1.8-2.5-3.5c0.3-1.6,1.8-2.7,3.5-2.5    c13.8,2.3,28.2-1.6,39.5-10.7c11.3-9.1,19.2-22,22.1-36.4c0.7-3.7,4.1-6.3,7.8-6.1c3.1,0.2,5.8,2.3,6.7,5.3    c2.5,8.2,7.5,14.9,11.3,18.5c1.2,1.1,1.3,3,0.2,4.2c-1.1,1.2-3,1.3-4.2,0.2c-2.1-2-9.4-9.4-13-21.1c-0.2-0.6-0.7-1-1.4-1    c-0.7,0-1.4,0.5-1.6,1.3c-3.2,15.7-11.8,29.9-24.2,39.9C66.9,122.2,54.4,126.6,41.8,126.6z"/></g></g></svg>